<?xml version="1.0" encoding="utf-8"?>
<!-- Generator: Adobe Illustrator 15.0.0, SVG Export Plug-In . SVG Version: 6.00 Build 0)  -->
<!DOCTYPE svg PUBLIC "-//W3C//DTD SVG 1.1//EN" "http://www.w3.org/Graphics/SVG/1.1/DTD/svg11.dtd">
<svg version="1.1" id="Layer_1" xmlns="http://www.w3.org/2000/svg" xmlns:xlink="http://www.w3.org/1999/xlink" x="0px" y="0px"
	 width="10.853px" height="11.229px" viewBox="0 0 10.853 11.229" enable-background="new 0 0 10.853 11.229" xml:space="preserve">
<g>
	<path d="M8.825,6.164l-4.367,4.361c-0.154,0.154-0.375,0.248-0.603,0.248c-0.229,0-0.449-0.094-0.604-0.248l-0.509-0.502
		C2.589,9.862,2.495,9.64,2.495,9.413c0-0.229,0.094-0.449,0.248-0.604l3.255-3.255L2.743,2.305
		c-0.154-0.16-0.248-0.382-0.248-0.609s0.094-0.449,0.248-0.603L3.252,0.59C3.406,0.43,3.627,0.336,3.855,0.336
		c0.228,0,0.448,0.094,0.603,0.254l4.367,4.361c0.154,0.153,0.248,0.375,0.248,0.603S8.979,6.003,8.825,6.164z"/>
</g>
</svg>
