<?xml version="1.0" encoding="utf-8"?>
<!-- Generator: Adobe Illustrator 15.0.0, SVG Export Plug-In . SVG Version: 6.00 Build 0)  -->
<!DOCTYPE svg PUBLIC "-//W3C//DTD SVG 1.1//EN" "http://www.w3.org/Graphics/SVG/1.1/DTD/svg11.dtd">
<svg version="1.1" id="Layer_1" xmlns="http://www.w3.org/2000/svg" xmlns:xlink="http://www.w3.org/1999/xlink" x="0px" y="0px"
	 width="14px" height="14px" viewBox="3 3 14 14" enable-background="new 3 3 14 14" xml:space="preserve">
<path d="M-0.74,5.49c0.125-0.172,0.188-0.156,0.188,0.046v9.022h-11.324c-0.095,0-0.154-0.028-0.176-0.082
	c-0.024-0.055-0.004-0.121,0.059-0.2l2.702-3.384c0.156-0.171,0.313-0.179,0.47-0.021l0.869,0.773
	c0.079,0.063,0.16,0.091,0.247,0.083c0.086-0.009,0.153-0.051,0.199-0.13l1.855-2.796C-5.526,8.6-5.377,8.583-5.204,8.755
	l1.315,1.223c0.156,0.156,0.305,0.14,0.445-0.047L-0.74,5.49z"/>
<path d="M6.643,6.662c0.915-0.914,2.015-1.371,3.303-1.371c1.287,0,2.389,0.458,3.302,1.371c0.914,0.916,1.372,2.016,1.372,3.303
	c0,1.287-0.458,2.388-1.372,3.304c-0.914,0.914-2.015,1.37-3.302,1.37c-1.288,0-2.389-0.456-3.303-1.37
	c-0.915-0.916-1.372-2.017-1.372-3.304C5.271,8.679,5.728,7.578,6.643,6.662z M9.945,13.623c1.016,0,1.88-0.358,2.591-1.077
	c0.711-0.717,1.067-1.577,1.067-2.58c0-1.017-0.356-1.879-1.067-2.59c-0.711-0.712-1.574-1.067-2.591-1.067
	c-1.003,0-1.864,0.355-2.581,1.067c-0.717,0.711-1.077,1.574-1.077,2.59c0,1.003,0.36,1.863,1.077,2.58
	C8.081,13.265,8.942,13.623,9.945,13.623z M10.311,7.324v2.479l1.524,1.525l-0.508,0.507L9.6,10.108V7.324H10.311z"/>
</svg>
